<?xml version="1.0" encoding="UTF-8" standalone="no"?>
<!-- Created with Inkscape (http://www.inkscape.org/) -->

<svg
   xmlns:dc="http://purl.org/dc/elements/1.1/"
   xmlns:cc="http://creativecommons.org/ns#"
   xmlns:rdf="http://www.w3.org/1999/02/22-rdf-syntax-ns#"
   xmlns:svg="http://www.w3.org/2000/svg"
   xmlns="http://www.w3.org/2000/svg"
   xmlns:sodipodi="http://sodipodi.sourceforge.net/DTD/sodipodi-0.dtd"
   xmlns:inkscape="http://www.inkscape.org/namespaces/inkscape"
   id="svg4545"
   version="1.1"
   inkscape:version="0.91 r13725"
   width="647.88434"
   height="129.14999"
   xml:space="preserve"
   sodipodi:docname="logo_UD-standard2.svg"><metadata
     id="metadata4551"><rdf:RDF><cc:Work
         rdf:about=""><dc:format>image/svg+xml</dc:format><dc:type
           rdf:resource="http://purl.org/dc/dcmitype/StillImage" /><dc:title></dc:title></cc:Work></rdf:RDF></metadata><defs
     id="defs4549"><clipPath
       clipPathUnits="userSpaceOnUse"
       id="clipPath4561"><path
         d="m 7.10547,3.62891 6802.13453,0 0,2145.61109 -6802.13453,0 0,-2145.61109 0,0 z"
         id="path4563"
         inkscape:connector-curvature="0" /></clipPath><clipPath
       clipPathUnits="userSpaceOnUse"
       id="clipPath4579"><path
         d="m 7.10547,3.62891 6802.13453,0 0,2145.61109 -6802.13453,0 0,-2145.61109 0,0 z"
         id="path4581"
         inkscape:connector-curvature="0" /></clipPath><clipPath
       clipPathUnits="userSpaceOnUse"
       id="clipPath4593"><path
         d="m 7.10547,3.62891 6802.13453,0 0,2145.61109 -6802.13453,0 0,-2145.61109 0,0 z"
         id="path4595"
         inkscape:connector-curvature="0" /></clipPath><clipPath
       clipPathUnits="userSpaceOnUse"
       id="clipPath4605"><path
         d="m 7.10547,3.62891 6802.13453,0 0,2145.61109 -6802.13453,0 0,-2145.61109 0,0 z"
         id="path4607"
         inkscape:connector-curvature="0" /></clipPath><clipPath
       clipPathUnits="userSpaceOnUse"
       id="clipPath4625"><path
         d="m 7.10547,3.62891 6802.13453,0 0,2145.61109 -6802.13453,0 0,-2145.61109 0,0 z"
         id="path4627"
         inkscape:connector-curvature="0" /></clipPath><clipPath
       clipPathUnits="userSpaceOnUse"
       id="clipPath4637"><path
         d="m 7.10547,3.62891 6802.13453,0 0,2145.61109 -6802.13453,0 0,-2145.61109 0,0 z"
         id="path4639"
         inkscape:connector-curvature="0" /></clipPath></defs><sodipodi:namedview
     pagecolor="#ffffff"
     bordercolor="#666666"
     borderopacity="1"
     objecttolerance="10"
     gridtolerance="10"
     guidetolerance="10"
     inkscape:pageopacity="0"
     inkscape:pageshadow="2"
     inkscape:window-width="1615"
     inkscape:window-height="1026"
     id="namedview4547"
     showgrid="false"
     fit-margin-top="0"
     fit-margin-left="0"
     fit-margin-right="0"
     fit-margin-bottom="0"
     inkscape:zoom="1.4142136"
     inkscape:cx="399.14642"
     inkscape:cy="165.09051"
     inkscape:window-x="65"
     inkscape:window-y="24"
     inkscape:window-maximized="1"
     inkscape:current-layer="g4553" /><g
     id="g4553"
     inkscape:groupmode="layer"
     inkscape:label="ink_ext_XXXXXX"
     transform="matrix(1.25,0,0,-1.25,-0.88818375,255.55)"><g
       id="g4669"><g
         transform="scale(0.1,0.1)"
         id="g4555"><g
           id="g4557"><g
             clip-path="url(#clipPath4561)"
             id="g4559"><path
               id="path4565"
               style="fill:#1a64b7;fill-opacity:1;fill-rule:nonzero;stroke:none"
               d="m 769.059,1378.52 c 0,-202.91 -170.641,-367.32 -381.082,-367.32 -210.192,0 -380.68012,164.41 -380.68012,367.32 l -0.21094,4.57 0,661.31 761.78106,0 0,-661.31 0.192,-4.57"
               inkscape:connector-curvature="0" /></g></g><path
           id="path4567"
           style="fill:#ffffff;fill-opacity:1;fill-rule:nonzero;stroke:none"
           d="m 170.086,1534.98 139.984,0 0,15.5859 -139.984,0 0,-15.5859 z"
           inkscape:connector-curvature="0" /><path
           id="path4569"
           style="fill:#ffffff;fill-opacity:1;fill-rule:nonzero;stroke:none"
           d="m 431.008,1560.84 -85.985,0 -24.214,-10.31 0,-15.55 134.453,0 0,15.55 -24.254,10.31"
           inkscape:connector-curvature="0" /><path
           id="path4571"
           style="fill:#ffffff;fill-opacity:1;fill-rule:nonzero;stroke:none"
           d="m 143.305,1560.84 -56.4691,0 -16.1523,-10.31 0,-15.55 88.6994,0 0,15.55 -16.078,10.31"
           inkscape:connector-curvature="0" /><path
           id="path4573"
           style="fill:#ffffff;fill-opacity:1;fill-rule:nonzero;stroke:none"
           d="m 115.082,1711.06 -49.6679,-15.47 0,-10.38 99.6129,0 0,10.38 -49.945,15.47"
           inkscape:connector-curvature="0" /><g
           id="g4575"><g
             clip-path="url(#clipPath4579)"
             id="g4577"><path
               id="path4583"
               style="fill:#ffffff;fill-opacity:1;fill-rule:nonzero;stroke:none"
               d="m 388.012,1694.07 c -4.235,0 -7.903,3.57 -7.903,7.91 0,4.37 3.668,7.71 7.903,7.71 4.601,0 8.215,-3.34 8.215,-7.71 0,-4.34 -3.614,-7.91 -8.215,-7.91 z m -0.035,22.2 -77.887,-20.68 0,-10.34 155.773,0 0,10.34 -77.886,20.68"
               inkscape:connector-curvature="0" /></g></g><path
           id="path4585"
           style="fill:#ffffff;fill-opacity:1;fill-rule:nonzero;stroke:none"
           d="m 668.949,1708.51 0,10 -16.152,0 0,-10 -41.703,-12.88 0,-10.38 99.461,0 0,10.38 -41.606,12.88"
           inkscape:connector-curvature="0" /><path
           id="path4587"
           style="fill:#ffffff;fill-opacity:1;fill-rule:nonzero;stroke:none"
           d="m 465.883,1534.98 139.93,0 0,15.5859 -139.93,0 0,-15.5859 z"
           inkscape:connector-curvature="0" /><g
           id="g4589"><g
             clip-path="url(#clipPath4593)"
             id="g4591"><path
               id="path4597"
               style="fill:#ffffff;fill-opacity:1;fill-rule:nonzero;stroke:none"
               d="m 145.34,1610.14 -10.817,0 0,12.81 c 0,3 2.532,5.43 5.418,5.43 2.95,0 5.399,-2.43 5.399,-5.43 l 0,-12.81 z m 0,-33.95 -10.891,0 0,10.57 c 0,2.81 2.489,5.1 5.453,5.1 2.989,0 5.438,-2.29 5.438,-5.1 l 0,-10.57 z m -10.891,83.4 c 0,2.85 2.489,5.21 5.453,5.21 2.989,0 5.438,-2.36 5.438,-5.21 l 0,-10.57 -10.891,0 0,10.57 z m -13.969,-10.57 -10.875,0 0,10.57 c 0,2.85 2.493,5.13 5.457,5.13 3.079,0 5.418,-2.28 5.418,-5.13 l 0,-10.57 z m 0,-38.88 -10.875,0 0,12.81 c 0,3 2.493,5.43 5.457,5.43 3.079,0 5.418,-2.43 5.418,-5.43 l 0,-12.81 z m -24.8823,38.88 -10.8125,0 0.1132,10.57 c 0,2.85 2.4883,5.21 5.2461,5.21 3,0 5.4532,-2.36 5.4532,-5.21 l 0,-10.57 z m 0,-38.88 -10.8125,0 0.1132,13 c 0,2.81 2.4883,5.24 5.2461,5.24 3,0 5.4532,-2.43 5.4532,-5.24 l 0,-13 z m 0,-33.95 -10.8125,0 0.1132,10.57 c 0,2.81 2.4883,5.1 5.2461,5.1 3,0 5.4532,-2.29 5.4532,-5.1 l 0,-10.57 z m -24.9141,98.72 0,-114.07 16.1523,10.22 20.1681,0 0,13 c 0,4.26 3.629,7.94 8.098,7.94 4.48,0 8.054,-3.68 8.054,-7.94 l 0,-13 20.129,0 16.231,-10.22 0,114.07 -88.8324,0"
               inkscape:connector-curvature="0" /></g></g><path
           id="path4599"
           style="fill:#ffffff;fill-opacity:1;fill-rule:nonzero;stroke:none"
           d="m 107.023,1570.95 16.1172,0 0,0.074 -16.1172,0 0,-0.074 z"
           inkscape:connector-curvature="0" /><g
           id="g4601"><g
             clip-path="url(#clipPath4605)"
             id="g4603"><path
               id="path4609"
               style="fill:#ffffff;fill-opacity:1;fill-rule:nonzero;stroke:none"
               d="m 290.566,1649.06 -10.793,0 0,10.53 c 0,2.85 2.567,5.21 5.454,5.21 3.078,0 5.339,-2.36 5.339,-5.21 l 0,-10.53 z m 0,-38.92 -10.793,0 0,12.81 c 0,2.96 2.567,5.47 5.454,5.47 3.078,0 5.339,-2.51 5.339,-5.47 l 0,-12.81 z m 0,-39.19 -10.718,0 0,15.77 c 0,2.85 2.531,5.14 5.418,5.14 3.039,0 5.3,-2.29 5.3,-5.14 l 0,-15.77 z m -30.105,0 -10.813,0 0.153,15.77 c 0,2.85 2.297,5.14 5.375,5.14 2.836,0 5.285,-2.29 5.285,-5.14 l 0,-15.77 z m -10.813,52 c 0,2.96 2.45,5.47 5.34,5.47 3.024,0 5.473,-2.51 5.473,-5.47 l 0,-12.81 -10.813,0 0,12.81 z m -19.273,26.11 -10.777,0 0.113,10.53 c 0,2.85 2.301,5.21 5.301,5.21 2.949,0 5.535,-2.36 5.535,-5.21 l -0.172,-10.53 z m 0,-38.92 -10.777,0 0,12.81 c 0,2.96 2.414,5.47 5.414,5.47 2.949,0 5.535,-2.51 5.535,-5.47 l -0.172,-12.81 z m 0.172,-39.19 -10.836,0 0,15.77 c 0,2.85 2.492,5.14 5.301,5.14 2.949,0 5.535,-2.29 5.535,-5.14 l 0,-15.77 z m -30.371,0 -10.664,0 0,15.77 c 0,2.85 2.449,5.28 5.336,5.28 2.949,0 5.328,-2.43 5.328,-5.28 l 0,-15.77 z m -10.664,52 c 0,2.96 2.449,5.47 5.336,5.47 2.949,0 5.328,-2.51 5.328,-5.47 l 0,-12.81 -10.664,0 0,12.81 z m 0,36.64 c 0,2.85 2.449,5.21 5.336,5.21 2.949,0 5.328,-2.36 5.328,-5.21 l 0,-10.53 -10.664,0 0,10.53 z m 60.136,0 c 0,2.85 2.45,5.21 5.34,5.21 3.024,0 5.473,-2.36 5.473,-5.21 l 0,-10.53 -10.813,0 0,10.53 z m -79.523,-98.79 139.984,0 0,114.11 -139.984,0 0,-114.11"
               inkscape:connector-curvature="0" /><path
               id="path4611"
               style="fill:#ffffff;fill-opacity:1;fill-rule:nonzero;stroke:none"
               d="m 437.09,1649.02 -10.832,0 0,10.57 c 0,2.85 2.375,5.25 5.414,5.25 2.926,0 5.418,-2.4 5.418,-5.25 l 0,-10.57 z m 0,-38.88 -10.832,0 0,12.84 c 0,2.97 2.375,5.44 5.414,5.44 2.926,0 5.418,-2.47 5.418,-5.44 l 0,-12.84 z m -29.156,38.88 -10.739,0 0.114,10.57 c 0,2.85 2.261,5.25 5.32,5.25 3.043,0 5.305,-2.4 5.305,-5.25 l 0,-10.57 z m 0,-38.88 -10.739,0 0.114,12.84 c 0,2.97 2.261,5.44 5.32,5.44 3.043,0 5.305,-2.47 5.305,-5.44 l 0,-12.84 z m -29.082,38.88 -10.778,0 0,10.57 c 0,2.85 2.492,5.25 5.289,5.25 3.078,0 5.489,-2.4 5.489,-5.25 l 0,-10.57 z m 0,-38.88 -10.778,0 0,12.84 c 0,2.97 2.492,5.44 5.289,5.44 3.078,0 5.489,-2.47 5.489,-5.44 l 0,-12.84 z m -28.848,38.88 -10.742,0 0,10.57 c 0,2.85 2.527,5.25 5.304,5.25 3.118,0 5.438,-2.4 5.438,-5.25 l 0,-10.57 z m -0.078,-38.88 -10.852,0 0.035,12.84 c 0,2.97 2.379,5.44 5.422,5.44 2.867,0 5.395,-2.47 5.395,-5.44 l 0,-12.84 z m -29.156,64.77 0,-114.11 24.214,10.26 0.114,0 0,13 c 0,4.26 3.554,7.94 8.058,7.94 4.602,0 8.024,-3.68 8.024,-7.94 l 0,-13 18.929,0 0,13 c 0,4.26 3.309,7.94 7.887,7.94 4.598,0 8.211,-3.68 8.211,-7.94 l 0,-13 18.566,0 0,13 c 0,4.26 3.747,7.8 8.215,7.8 4.371,0 7.985,-3.54 7.985,-7.8 l 0,-13 24.289,-10.26 0,114.11 -134.492,0"
               inkscape:connector-curvature="0" /></g></g><path
           id="path4613"
           style="fill:#ffffff;fill-opacity:1;fill-rule:nonzero;stroke:none"
           d="m 414.812,1570.95 16.1953,0 0,0.074 -16.1953,0 0,-0.074 z"
           inkscape:connector-curvature="0" /><path
           id="path4615"
           style="fill:#ffffff;fill-opacity:1;fill-rule:nonzero;stroke:none"
           d="m 380.125,1570.95 16.1211,0 0,0.074 -16.1211,0 0,-0.074 z"
           inkscape:connector-curvature="0" /><path
           id="path4617"
           style="fill:#ffffff;fill-opacity:1;fill-rule:nonzero;stroke:none"
           d="m 345.098,1570.95 16.082,0 0,0.074 -16.082,0 0,-0.074 z"
           inkscape:connector-curvature="0" /><path
           id="path4619"
           style="fill:#ffffff;fill-opacity:1;fill-rule:nonzero;stroke:none"
           d="m 465.883,1534.98 139.93,0 0,15.5859 -139.93,0 0,-15.5859 z"
           inkscape:connector-curvature="0" /><g
           id="g4621"><g
             clip-path="url(#clipPath4625)"
             id="g4623"><path
               id="path4629"
               style="fill:#ffffff;fill-opacity:1;fill-rule:nonzero;stroke:none"
               d="m 586.352,1570.95 -10.782,0 0,15.81 c 0,2.81 2.453,5.1 5.492,5.1 2.985,0 5.29,-2.29 5.29,-5.1 l 0,-15.81 z m -30.129,0 -10.856,0 0,15.81 c 0,2.81 2.567,5.1 5.496,5.1 2.985,0 5.36,-2.29 5.36,-5.1 l 0,-15.81 z m -10.856,52 c 0,3 2.567,5.43 5.399,5.43 3.082,0 5.457,-2.43 5.457,-5.43 l 0,-12.81 -10.856,0 0,12.81 z m -19.23,-52 -10.703,0 0.117,15.81 c 0,2.81 2.297,5.1 5.301,5.1 3.023,0 5.285,-2.29 5.285,-5.1 l 0,-15.81 z m -10.782,52 c 0,3 2.493,5.43 5.497,5.43 3.023,0 5.285,-2.43 5.285,-5.43 l 0,-12.81 -10.782,0 0,12.81 z m -19.382,-52 -10.7,0 0,15.81 c 0,2.81 2.524,5.24 5.399,5.24 2.922,0 5.301,-2.43 5.301,-5.24 l 0,-15.81 z m -10.7,52 c 0,3 2.332,5.43 5.399,5.43 2.922,0 5.301,-2.43 5.301,-5.43 l 0,-12.81 -10.778,0 0.078,12.81 z m 0,36.64 c 0,2.85 2.332,5.21 5.399,5.21 2.922,0 5.301,-2.36 5.301,-5.21 l 0,-10.53 -10.778,0 0.078,10.53 z m 30.082,0 c 0,2.85 2.493,5.21 5.497,5.21 3.023,0 5.285,-2.36 5.285,-5.21 l 0,-10.53 -10.782,0 0,10.53 z m 30.012,0 c 0,2.85 2.567,5.21 5.399,5.21 3.082,0 5.457,-2.36 5.457,-5.21 l 0,-10.53 -10.856,0 0,10.53 z m 30.203,-36.64 c 0,3 2.453,5.43 5.492,5.43 2.985,0 5.29,-2.43 5.29,-5.43 l 0,-12.81 -10.782,0 0,12.81 z m 0,36.64 c 0,2.85 2.453,5.21 5.492,5.21 2.985,0 5.29,-2.36 5.29,-5.21 l 0,-10.53 -10.782,0 0,10.53 z m -109.722,-98.75 139.847,0 0,114.11 -139.847,0 0,-114.11"
               inkscape:connector-curvature="0" /></g></g><path
           id="path4631"
           style="fill:#ffffff;fill-opacity:1;fill-rule:nonzero;stroke:none"
           d="m 689.004,1560.84 -56.395,0 -16.195,-10.31 0,-15.55 88.707,0 0,15.55 -16.117,10.31"
           inkscape:connector-curvature="0" /><g
           id="g4633"><g
             clip-path="url(#clipPath4637)"
             id="g4635"><path
               id="path4641"
               style="fill:#ffffff;fill-opacity:1;fill-rule:nonzero;stroke:none"
               d="m 691.113,1610.14 -10.89,0 0,12.81 c 0,3 2.453,5.43 5.398,5.43 3.078,0 5.492,-2.43 5.492,-5.43 l 0,-12.81 z m -0.152,-33.95 -10.738,0 0,10.57 c 0,2.81 2.453,5.1 5.398,5.1 2.922,0 5.34,-2.29 5.34,-5.1 l 0,-10.57 z m -10.738,83.4 c 0,2.85 2.453,5.21 5.398,5.21 2.922,0 5.34,-2.36 5.34,-5.21 l 0,-10.57 -10.738,0 0,10.57 z m -14.032,-10.57 -10.699,0 0,10.57 c 0,2.85 2.262,5.13 5.305,5.13 2.945,0 5.394,-2.28 5.394,-5.13 l 0,-10.57 z m 0,-38.88 -10.699,0 0,12.81 c 0,3 2.262,5.43 5.305,5.43 2.945,0 5.394,-2.43 5.394,-5.43 l 0,-12.81 z m -24.894,38.88 -10.758,0 0.078,10.57 c 0,2.85 2.375,5.21 5.262,5.21 3.004,0 5.492,-2.36 5.492,-5.21 l -0.074,-10.57 z m 0,-38.88 -10.758,0 0.078,13 c 0,2.81 2.375,5.24 5.262,5.24 3.004,0 5.492,-2.43 5.492,-5.24 l -0.074,-13 z m 0,-33.95 -10.758,0 0.078,10.57 c 0,2.81 2.375,5.1 5.262,5.1 3.004,0 5.492,-2.29 5.492,-5.1 l -0.074,-10.57 z m -24.883,98.72 0,-114.07 16.195,10.22 20.168,0 0,13 c 0,4.26 3.532,7.94 8.094,7.94 4.352,0 8.059,-3.68 8.059,-7.94 l 0,-13 20.035,0 16.156,-10.22 0,114.07 -88.707,0"
               inkscape:connector-curvature="0" /></g></g><path
           id="path4643"
           style="fill:#ffffff;fill-opacity:1;fill-rule:nonzero;stroke:none"
           d="m 652.758,1570.95 16.1562,0 0,0.074 -16.1562,0 0,-0.074 z"
           inkscape:connector-curvature="0" /><path
           id="path4645"
           style="fill:#ffffff;fill-opacity:1;fill-rule:nonzero;stroke:none"
           d="m 382.199,1823.66 0,147.14 -0.207,0 c 0,14.18 -14.16,12.78 -14.16,12.78 l -98.687,0 0,-147 98.382,0 c 0,0 14.672,-0.15 14.672,-12.92"
           inkscape:connector-curvature="0" /><path
           id="path4647"
           style="fill:#ffffff;fill-opacity:1;fill-rule:nonzero;stroke:none"
           d="m 408.332,1836.54 98.395,0 0,147.04 -98.641,0 c 0,0 -14.352,1.44 -14.352,-12.81 l 0,-147.3 c 0,12.99 14.598,13.07 14.598,13.07"
           inkscape:connector-curvature="0" /><path
           id="path4649"
           style="fill:#ffffff;fill-opacity:1;fill-rule:nonzero;stroke:none"
           d="m 523.078,1965.71 0,-145.63 -120.312,-0.22 -0.782,-3.01 c -2.222,-5.21 -7.734,-8.97 -13.972,-8.97 -6.231,0 -11.723,3.76 -13.965,8.97 l -0.817,3.01 -119.894,0.22 -0.113,24.97 0,120.66 -12.473,0 0,-120.66 0.078,-25.19 0,-12.09 119.817,0 3.308,0.19 c 4.977,-7.64 13.82,-12.78 24.024,-12.78 l 0.265,0 c 9.961,0 18.758,5.14 23.797,12.7 l 3.688,-0.11 119.929,0 0,157.94 -12.578,0"
           inkscape:connector-curvature="0" /><path
           id="path4651"
           style="fill:#ffffff;fill-opacity:1;fill-rule:nonzero;stroke:none"
           d="m 578.633,1447.21 c 18.984,9.36 40.637,14.68 63.441,14.68 22.809,0 44.457,-5.32 63.485,-14.68 l -0.231,43.72 c -19.082,9.31 -40.711,14.41 -63.406,14.41 -22.844,0 -44.457,-5.1 -63.578,-14.41 -19.063,-9.2 -40.637,-14.45 -63.364,-14.45 -22.964,0 -44.402,5.25 -63.523,14.45 -19.082,9.31 -40.672,14.41 -63.48,14.41 -22.903,0 -44.418,-5.1 -63.575,-14.41 -19.027,-9.2 -40.679,-14.45 -63.484,-14.45 -22.883,0 -44.305,5.25 -63.484,14.45 -19.118,9.31 -40.672,14.41 -63.496,14.41 -22.848,0 -44.438,-5.1 -63.5591,-14.41 l 0.2266,-43.72 c 19.125,9.36 40.6755,14.68 63.6525,14.68 22.734,0 44.246,-5.32 63.445,-14.68 19.121,-9.27 40.598,-14.37 63.328,-14.37 22.883,0 44.496,5.1 63.446,14.37 19.308,9.36 40.808,14.68 63.535,14.68 22.926,0 44.496,-5.32 63.562,-14.68 19.231,-9.27 40.672,-14.37 63.481,-14.37 22.976,0 44.496,5.1 63.578,14.37"
           inkscape:connector-curvature="0" /><path
           id="path4653"
           style="fill:#ffffff;fill-opacity:1;fill-rule:nonzero;stroke:none"
           d="m 578.762,1366.89 c 19.066,9.39 40.527,14.48 63.406,14.48 22.852,0 44.383,-5.09 63.406,-14.48 l -0.226,43.52 c -19.067,9.39 -40.52,14.53 -63.446,14.53 -22.804,0 -44.3,-5.14 -63.402,-14.53 -19.16,-9.08 -40.809,-14.36 -63.5,-14.36 -22.965,0 -44.402,5.28 -63.562,14.36 -19.083,9.39 -40.633,14.53 -63.442,14.53 -22.941,0 -44.418,-5.14 -63.574,-14.53 -19.027,-9.08 -40.711,-14.36 -63.371,-14.36 -22.883,0 -44.457,5.28 -63.598,14.36 -19.121,9.39 -40.672,14.53 -63.539,14.53 -22.805,0 -44.3593,-5.14 -63.4413,-14.53 l 0.1875,-43.52 c 19.121,9.39 40.6408,14.48 63.6208,14.48 22.77,0 44.203,-5.09 63.403,-14.48 19.121,-9.31 40.601,-14.48 63.519,-14.48 22.692,0 44.344,5.17 63.504,14.48 19.137,9.39 40.633,14.48 63.555,14.48 22.656,0 44.265,-5.09 63.328,-14.48 19.199,-9.31 40.676,-14.48 63.445,-14.48 22.981,0 44.535,5.17 63.727,14.48"
           inkscape:connector-curvature="0" /><path
           id="path4655"
           style="fill:#ffffff;fill-opacity:1;fill-rule:nonzero;stroke:none"
           d="m 578.762,1286.23 c 19.066,9.23 40.527,14.52 63.406,14.52 22.852,0 44.383,-5.29 63.406,-14.52 l -0.226,43.64 c -19.067,9.12 -40.52,14.4 -63.446,14.4 -22.804,0 -44.3,-5.28 -63.402,-14.4 -19.16,-9.39 -40.809,-14.41 -63.5,-14.41 -22.965,0 -44.402,5.02 -63.562,14.41 -19.083,9.12 -40.633,14.4 -63.442,14.4 -22.941,0 -44.418,-5.28 -63.574,-14.4 -19.027,-9.39 -40.711,-14.41 -63.371,-14.41 -22.883,0 -44.457,5.02 -63.598,14.41 -19.121,9.12 -40.672,14.4 -63.539,14.4 -22.805,0 -44.3593,-5.28 -63.4413,-14.4 l 0.1875,-43.64 c 19.121,9.23 40.6408,14.52 63.6208,14.52 22.77,0 44.203,-5.29 63.403,-14.52 19.121,-9.24 40.601,-14.34 63.519,-14.34 22.692,0 44.344,5.1 63.504,14.34 19.137,9.23 40.633,14.52 63.555,14.52 22.656,0 44.265,-5.29 63.328,-14.52 19.199,-9.24 40.676,-14.34 63.445,-14.34 22.981,0 44.535,5.1 63.727,14.34"
           inkscape:connector-curvature="0" /><path
           id="path4657"
           style="fill:#231f20;fill-opacity:1;fill-rule:evenodd;stroke:none"
           d="m 1000.64,1100.14 256.15,0 c 286.99,0 540.46,96.56 540.46,468.05 0,371.48 -253.47,468.04 -540.46,468.04 l -256.15,0 0,-936.09 z m 187.75,788.57 104.61,0 c 156.91,0 308.45,-116.67 308.45,-320.52 0,-203.85 -151.54,-320.53 -308.45,-320.53 l -104.61,0 0,641.05"
           inkscape:connector-curvature="0" /><path
           id="path4659"
           style="fill:#231f20;fill-opacity:1;fill-rule:evenodd;stroke:none"
           d="m 2065.45,1513.2 c 8.05,92.54 59.01,162.27 159.59,162.27 100.58,0 140.82,-75.09 146.18,-162.27 l -305.77,0 z m 426.47,-227.98 c -67.06,-37.56 -142.15,-69.74 -229.33,-69.74 -111.31,0 -189.09,63.03 -197.14,174.34 l 477.43,0 c 0,241.4 -72.42,417.08 -328.57,417.08 -214.57,0 -320.52,-164.95 -320.52,-364.78 0,-226.64 132.77,-358.07 360.76,-358.07 96.56,0 171.66,18.78 237.37,54.99 l 0,146.18"
           inkscape:connector-curvature="0" /><path
           id="path4661"
           style="fill:#231f20;fill-opacity:1;fill-rule:nonzero;stroke:none"
           d="m 3292.56,1790.81 -179.7,0 0,-337.95 c 0,-88.52 -28.17,-229.33 -158.25,-229.33 -115.34,0 -116.68,113.99 -116.68,198.48 l 0,368.8 -179.7,0 0,-435.86 c 0,-155.56 71.07,-270.9 234.68,-270.9 93.88,0 171.66,42.92 226.65,109.97 l 2.69,0 0,-93.88 170.31,0 0,690.67"
           inkscape:connector-curvature="0" /><path
           id="path4663"
           style="fill:#231f20;fill-opacity:1;fill-rule:nonzero;stroke:none"
           d="m 3873.24,1781.42 c -56.33,12.07 -111.31,25.48 -195.8,25.48 -140.82,0 -270.9,-65.71 -270.9,-214.57 0,-249.45 312.48,-156.91 312.48,-292.36 0,-67.06 -72.43,-84.49 -118.02,-84.49 -61.69,0 -120.7,17.43 -177.02,45.6 l -10.73,-147.52 c 65.71,-17.44 135.45,-29.51 203.84,-29.51 146.18,0 289.68,64.38 289.68,225.31 0,249.44 -312.48,179.7 -312.48,289.67 0,59.01 57.67,76.44 105.95,76.44 65.71,0 105.95,-10.72 160.93,-29.5 l 12.07,135.45"
           inkscape:connector-curvature="0" /><path
           id="path4665"
           style="fill:#231f20;fill-opacity:1;fill-rule:nonzero;stroke:none"
           d="m 4081.07,1308.02 c 0,-136.8 77.78,-223.97 218.59,-223.97 53.64,0 95.22,5.37 132.77,16.09 l -5.36,142.16 c -18.78,-12.07 -49.62,-18.77 -81.81,-18.77 -68.4,0 -84.49,54.98 -84.49,113.99 l 0,321.86 159.59,0 0,131.43 -159.59,0 0,195.8 -179.7,-57.67 0,-138.13 -132.77,0 0,-131.43 132.77,0 0,-351.36"
           inkscape:connector-curvature="0" /><path
           id="path4667"
           style="fill:#231f20;fill-opacity:1;fill-rule:evenodd;stroke:none"
           d="m 4467.34,1440.79 c 0,-198.49 132.76,-356.74 360.75,-356.74 229.32,0 362.09,158.25 362.09,356.74 0,227.98 -156.91,366.11 -362.09,366.11 -203.85,0 -360.75,-138.13 -360.75,-366.11 z m 187.75,21.45 c 0,103.27 56.32,205.19 173,205.19 118.02,0 174.34,-99.24 174.34,-205.19 0,-115.33 -36.21,-238.71 -174.34,-238.71 -136.79,0 -173,124.72 -173,238.71"
           inkscape:connector-curvature="0" /></g></g></g></svg>